<svg version="1.1" id="Layer_1" xmlns="http://www.w3.org/2000/svg" xmlns:xlink="http://www.w3.org/1999/xlink" x="0px" y="0px"
	 width="100%" viewBox="0 0 1674 1760" enable-background="new 0 0 1674 1760" xml:space="preserve">
<path fill="#000000" opacity="1.000000" stroke="none" 
	d="
M1.000000,641.000000 
	C1.000000,427.333374 1.000000,214.166718 1.000000,1.000057 
	C558.999939,1.000038 1116.999878,1.000038 1674.999756,1.000019 
	C1674.999878,587.666504 1674.999878,1174.333008 1675.000000,1760.999634 
	C1117.000244,1760.999756 559.000427,1760.999756 1.000343,1760.999878 
	C1.000000,1387.833374 1.000000,1014.666687 1.000000,641.000000 
M1649.837891,805.500061 
	C1649.837891,777.164795 1649.861694,748.829468 1649.824951,720.494263 
	C1649.812012,710.557495 1644.373901,703.530579 1635.272705,701.819397 
	C1632.355469,701.270935 1629.317871,701.187317 1626.335327,701.187134 
	C1134.670044,701.161194 643.004883,701.162292 151.339661,701.162292 
	C149.288193,701.162292 147.236725,701.162292 145.185242,701.162292 
	C146.273743,699.579285 147.481140,698.805359 148.801880,698.420654 
	C173.226181,691.307617 197.654434,684.207642 222.100906,677.171143 
	C274.328033,662.138428 326.570282,647.158081 378.798340,632.128601 
	C416.901093,621.163879 454.980072,610.116211 493.089417,599.174438 
	C550.414490,582.715637 607.765198,566.346008 665.088806,549.881836 
	C698.275208,540.350220 731.421082,530.677490 764.600952,521.122742 
	C801.894897,510.383331 839.212708,499.726471 876.508728,488.994202 
	C909.857300,479.397888 943.182068,469.719055 976.532349,460.128479 
	C1023.039307,446.754364 1069.566284,433.449799 1116.073120,420.075043 
	C1151.804199,409.799225 1187.511475,399.440277 1223.240112,389.155365 
	C1275.458862,374.123566 1327.691406,359.139496 1379.909912,344.106812 
	C1411.023804,335.149719 1442.123535,326.142792 1473.227295,317.150421 
	C1505.447876,307.835175 1537.696045,298.613281 1569.869629,289.138214 
	C1582.394409,285.449615 1587.135986,276.734589 1583.589844,264.299438 
	C1575.207153,234.904602 1566.583496,205.578629 1558.145874,176.199387 
	C1547.337402,138.564682 1536.634277,100.899734 1525.837402,63.261642 
	C1524.155640,57.399036 1522.595581,51.457336 1520.318237,45.819206 
	C1515.910767,34.908146 1508.680664,31.426872 1497.291382,34.621964 
	C1478.518188,39.888470 1459.822510,45.430809 1441.081543,50.812744 
	C1393.605713,64.446564 1346.113892,78.023933 1298.645630,91.683876 
	C1251.175171,105.344490 1203.740356,119.129288 1156.262573,132.764206 
	C1112.131226,145.438034 1067.951416,157.942627 1023.815735,170.601074 
	C974.926880,184.622849 926.082764,198.800995 877.184387,212.789413 
	C822.427490,228.453751 767.616760,243.929764 712.857239,259.584778 
	C665.324646,273.173737 617.824646,286.876770 570.321716,300.568878 
	C527.305725,312.967651 484.308289,325.430969 441.296783,337.845245 
	C399.865875,349.803375 358.429230,361.741669 316.991699,373.676727 
	C275.868134,385.521423 234.736893,397.339600 193.615326,409.191254 
	C162.512711,418.155334 131.410995,427.122864 100.325706,436.146790 
	C75.416855,443.377716 50.508194,450.611633 25.653345,458.024902 
	C17.883621,460.342316 13.750670,466.012421 14.114974,474.035339 
	C14.329877,478.768097 15.339034,483.553314 16.631310,488.134338 
	C25.701204,520.286865 34.883533,552.408020 44.136044,584.508606 
	C54.015129,618.783020 63.941357,653.044189 73.987610,687.269897 
	C78.415108,702.353516 82.486160,717.188843 82.403595,733.369507 
	C81.875488,836.863586 82.016518,940.361206 82.004913,1043.857666 
	C81.980431,1262.190308 81.997002,1480.523071 82.004120,1698.855713 
	C82.004196,1701.020142 82.020470,1703.190430 82.171936,1705.348022 
	C83.037109,1717.672363 88.013115,1722.860352 100.253098,1724.163696 
	C102.562904,1724.409668 104.899681,1724.497803 107.224014,1724.497925 
	C599.222595,1724.511963 1091.221191,1724.508911 1583.219727,1724.525146 
	C1596.541626,1724.525635 1609.863647,1724.786743 1623.185547,1724.799316 
	C1626.999756,1724.802979 1630.843140,1724.578613 1634.623169,1724.079468 
	C1644.527466,1722.771362 1649.837158,1715.303833 1649.837158,1702.997559 
	C1649.838013,1404.165039 1649.837891,1105.332642 1649.837891,805.500061 
z"/>
<path fill="#FCFCFC" opacity="1.000000" stroke="none" 
	d="
M1649.837891,806.000122 
	C1649.837891,1105.332642 1649.838013,1404.165039 1649.837158,1702.997559 
	C1649.837158,1715.303833 1644.527466,1722.771362 1634.623169,1724.079468 
	C1630.843140,1724.578613 1626.999756,1724.802979 1623.185547,1724.799316 
	C1609.863647,1724.786743 1596.541626,1724.525635 1583.219727,1724.525146 
	C1091.221191,1724.508911 599.222595,1724.511963 107.224014,1724.497925 
	C104.899681,1724.497803 102.562904,1724.409668 100.253098,1724.163696 
	C88.013115,1722.860352 83.037109,1717.672363 82.171936,1705.348022 
	C82.020470,1703.190430 82.004196,1701.020142 82.004120,1698.855713 
	C81.997002,1480.523071 81.980431,1262.190308 82.004913,1043.857666 
	C82.016518,940.361206 81.875488,836.863586 82.403595,733.369507 
	C82.486160,717.188843 78.415108,702.353516 73.987610,687.269897 
	C63.941357,653.044189 54.015129,618.783020 44.136044,584.508606 
	C34.883533,552.408020 25.701204,520.286865 16.631310,488.134338 
	C15.339034,483.553314 14.329877,478.768097 14.114974,474.035339 
	C13.750670,466.012421 17.883621,460.342316 25.653345,458.024902 
	C50.508194,450.611633 75.416855,443.377716 100.325706,436.146790 
	C131.410995,427.122864 162.512711,418.155334 193.615326,409.191254 
	C234.736893,397.339600 275.868134,385.521423 316.991699,373.676727 
	C358.429230,361.741669 399.865875,349.803375 441.296783,337.845245 
	C484.308289,325.430969 527.305725,312.967651 570.321716,300.568878 
	C617.824646,286.876770 665.324646,273.173737 712.857239,259.584778 
	C767.616760,243.929764 822.427490,228.453751 877.184387,212.789413 
	C926.082764,198.800995 974.926880,184.622849 1023.815735,170.601074 
	C1067.951416,157.942627 1112.131226,145.438034 1156.262573,132.764206 
	C1203.740356,119.129288 1251.175171,105.344490 1298.645630,91.683876 
	C1346.113892,78.023933 1393.605713,64.446564 1441.081543,50.812744 
	C1459.822510,45.430809 1478.518188,39.888470 1497.291382,34.621964 
	C1508.680664,31.426872 1515.910767,34.908146 1520.318237,45.819206 
	C1522.595581,51.457336 1524.155640,57.399036 1525.837402,63.261642 
	C1536.634277,100.899734 1547.337402,138.564682 1558.145874,176.199387 
	C1566.583496,205.578629 1575.207153,234.904602 1583.589844,264.299438 
	C1587.135986,276.734589 1582.394409,285.449615 1569.869629,289.138214 
	C1537.696045,298.613281 1505.447876,307.835175 1473.227295,317.150421 
	C1442.123535,326.142792 1411.023804,335.149719 1379.909912,344.106812 
	C1327.691406,359.139496 1275.458862,374.123566 1223.240112,389.155365 
	C1187.511475,399.440277 1151.804199,409.799225 1116.073120,420.075043 
	C1069.566284,433.449799 1023.039307,446.754364 976.532349,460.128479 
	C943.182068,469.719055 909.857300,479.397888 876.508728,488.994202 
	C839.212708,499.726471 801.894897,510.383331 764.600952,521.122742 
	C731.421082,530.677490 698.275208,540.350220 665.088806,549.881836 
	C607.765198,566.346008 550.414490,582.715637 493.089417,599.174438 
	C454.980072,610.116211 416.901093,621.163879 378.798340,632.128601 
	C326.570282,647.158081 274.328033,662.138428 222.100906,677.171143 
	C197.654434,684.207642 173.226181,691.307617 148.801880,698.420654 
	C147.481140,698.805359 146.273743,699.579285 145.185242,701.162292 
	C147.236725,701.162292 149.288193,701.162292 151.339661,701.162292 
	C643.004883,701.162292 1134.670044,701.161194 1626.335327,701.187134 
	C1629.317871,701.187317 1632.355469,701.270935 1635.272705,701.819397 
	C1644.373901,703.530579 1649.812012,710.557495 1649.824951,720.494263 
	C1649.861694,748.829468 1649.837891,777.164795 1649.837891,806.000122 
M1381.500000,966.836731 
	C960.742310,966.836731 539.984619,966.836731 119.136017,966.836731 
	C119.136017,1207.501831 119.136017,1447.706787 119.136017,1687.834473 
	C617.469910,1687.834473 1115.504395,1687.834473 1613.595703,1687.834473 
	C1613.595703,1447.423462 1613.595703,1207.341187 1613.595703,966.836731 
	C1536.407959,966.836731 1459.453979,966.836731 1381.500000,966.836731 
M248.494720,930.829895 
	C252.992081,930.829590 257.491028,930.903198 261.986328,930.805969 
	C265.682312,930.726135 268.817627,929.593201 270.314148,925.741577 
	C279.373108,902.426208 288.446411,879.116333 297.532104,855.811340 
	C308.972534,826.466309 320.459015,797.139099 331.862976,767.779846 
	C335.794464,757.658264 339.537872,747.463684 343.522491,736.890503 
	C310.000427,736.890503 277.205078,736.889404 244.409714,736.891846 
	C239.867249,736.892212 237.621902,739.716064 236.135605,743.559326 
	C229.319504,761.184387 222.492630,778.805359 215.636688,796.414978 
	C200.429108,835.475830 185.190186,874.524536 169.995880,913.590576 
	C167.883423,919.021973 165.951279,924.523499 163.627075,930.829895 
	C192.252594,930.829895 219.874680,930.829895 248.494720,930.829895 
M223.305130,437.850616 
	C207.574539,442.287048 191.849045,446.741699 176.110168,451.148468 
	C171.586853,452.414948 169.160828,455.077423 168.871399,459.981323 
	C168.401428,467.944031 167.564713,475.886017 166.835114,483.832336 
	C161.955948,536.973816 157.055084,590.113342 152.190231,643.256226 
	C151.698013,648.633057 151.398209,654.027588 150.992035,659.650269 
	C152.142334,659.520264 152.616364,659.533447 153.050385,659.408081 
	C183.999634,650.470764 214.946777,641.526245 245.890869,632.571106 
	C250.470123,631.245850 251.651260,627.754761 252.040527,623.436218 
	C254.398575,597.276062 256.907196,571.129517 259.318542,544.974121 
	C262.844299,506.730225 266.333618,468.482941 269.823547,430.235748 
	C269.979858,428.522980 269.989319,426.796753 270.100861,424.332245 
	C254.163895,428.882324 239.098724,433.183533 223.305130,437.850616 
M1232.522949,182.143265 
	C1227.304443,239.231842 1222.085815,296.320404 1216.839844,353.708771 
	C1219.797485,352.920807 1222.334717,352.295898 1224.842407,351.568939 
	C1252.770752,343.472778 1280.648071,335.192993 1308.663208,327.409882 
	C1313.637085,326.028076 1315.805542,324.159119 1316.277710,318.919922 
	C1321.558105,260.318054 1327.063232,201.736496 1332.472412,143.146164 
	C1333.200439,135.260971 1333.731079,127.357559 1334.386841,119.036209 
	C1332.596069,119.399956 1331.472046,119.550362 1330.393188,119.858833 
	C1300.695068,128.350952 1271.000488,136.855377 1241.308716,145.369614 
	C1237.761475,146.386780 1235.793457,148.579376 1235.462646,152.454681 
	C1234.643066,162.055908 1233.593384,171.637497 1232.522949,182.143265 
M1321.500000,930.829895 
	C1337.161987,930.829895 1352.825195,930.723083 1368.485229,930.893921 
	C1373.283691,930.946289 1376.238281,929.229553 1377.969727,924.678345 
	C1385.101929,905.931519 1392.348877,887.227966 1399.637939,868.541382 
	C1412.350464,835.949890 1425.141479,803.388916 1437.865112,770.801697 
	C1442.127319,759.885681 1446.285034,748.928772 1450.621460,737.650146 
	C1449.489746,737.421631 1448.886841,737.193726 1448.283569,737.193359 
	C1415.793457,737.173706 1383.303101,737.140076 1350.813599,737.288330 
	C1349.480103,737.294373 1347.483643,738.738159 1346.938721,740.004028 
	C1344.251953,746.244812 1341.979614,752.662842 1339.508789,758.997986 
	C1327.404663,790.029541 1315.257935,821.044556 1303.176880,852.085144 
	C1293.091553,877.998291 1283.076294,903.938721 1272.656860,930.829895 
	C1288.995239,930.829895 1304.747681,930.829895 1321.500000,930.829895 
M699.275208,502.853699 
	C702.599365,501.877655 705.921448,500.894287 709.248047,499.926727 
	C731.907715,493.336182 754.565125,486.737793 777.231140,480.169373 
	C782.232483,478.720001 785.056641,475.622986 785.530212,470.302673 
	C786.237061,462.362000 787.224182,454.446503 787.953247,446.507568 
	C792.572449,396.208649 797.157104,345.906555 801.743164,295.604584 
	C802.458496,287.758789 803.122498,279.908264 803.832642,271.804596 
	C802.179382,271.960144 801.156799,271.897217 800.230835,272.166504 
	C770.738831,280.742340 741.266785,289.386932 711.759460,297.909515 
	C707.854980,299.037262 705.958923,301.354126 705.600098,305.277893 
	C704.828552,313.714722 703.955566,322.142212 703.175110,330.578247 
	C698.169617,384.680115 693.167297,438.782318 688.202820,492.887939 
	C687.820435,497.055756 687.736023,501.250916 687.480164,506.052063 
	C691.797607,504.853668 695.128601,503.929077 699.275208,502.853699 
M891.507263,755.899292 
	C893.827393,749.972717 896.147522,744.046143 898.713745,737.491089 
	C895.651672,737.294434 893.375549,737.023376 891.099243,737.021057 
	C862.615540,736.992126 834.131775,737.001160 805.648071,737.002625 
	C797.503418,737.003052 796.765076,737.443787 793.884399,744.844238 
	C772.964111,798.589172 752.056885,852.339233 731.171143,906.097534 
	C728.130127,913.924866 725.224976,921.804932 722.108521,930.053467 
	C723.782898,930.390991 724.866516,930.802246 725.949097,930.799500 
	C756.590149,930.722290 787.231201,930.609863 817.872131,930.482666 
	C821.572144,930.467285 824.062439,928.795593 825.461609,925.211548 
	C832.694031,906.685120 840.079346,888.218323 847.313538,869.692505 
	C862.021484,832.027527 876.666870,794.338074 891.507263,755.899292 
M502.198059,559.805908 
	C504.734619,559.067566 507.245209,558.218872 509.813202,557.613892 
	C515.233765,556.336731 517.737732,553.066223 518.111755,547.439270 
	C518.761414,537.663696 519.928406,527.923279 520.830750,518.163696 
	C525.114075,471.835205 529.396423,425.506622 533.642212,379.174652 
	C534.562317,369.133759 535.330261,359.078949 536.196777,348.689270 
	C534.437988,348.992950 533.281860,349.087372 532.186951,349.397766 
	C519.648682,352.952087 507.114380,356.520599 494.589630,360.122406 
	C478.569519,364.729370 462.590088,369.481995 446.525421,373.927246 
	C441.820770,375.229065 439.605865,377.735535 439.435089,382.623718 
	C439.267151,387.429932 438.522949,392.214172 438.088531,397.013214 
	C433.099701,452.124451 428.107819,507.235474 423.159058,562.350342 
	C422.558380,569.040344 422.205811,575.752563 421.717865,582.746948 
	C448.722076,574.997986 475.054932,567.441589 502.198059,559.805908 
M474.647552,854.364136 
	C464.877350,879.647034 455.107178,904.929993 445.098877,930.829041 
	C447.438629,930.829041 448.898315,930.828979 450.358002,930.828979 
	C479.178284,930.828979 507.998566,930.832642 536.818848,930.826355 
	C543.766113,930.824890 545.547913,929.700562 548.055542,923.273010 
	C555.949341,903.039490 563.747253,882.768555 571.635986,862.533020 
	C583.735962,831.494995 595.909058,800.485413 607.990601,769.440247 
	C612.120422,758.828247 616.068665,748.145508 620.286560,737.001892 
	C618.196289,737.001892 616.744629,737.001831 615.292908,737.001831 
	C586.472595,737.001831 557.652344,736.998230 528.832031,737.004333 
	C521.594116,737.005859 519.980286,738.013306 517.325195,744.782715 
	C512.304504,757.583496 507.425995,770.440063 502.436859,783.253357 
	C493.296570,806.727722 484.118805,830.187500 474.647552,854.364136 
M1066.500000,930.828979 
	C1072.994629,930.912415 1079.491577,930.915344 1085.983276,931.099487 
	C1094.337524,931.336426 1096.802612,929.820923 1099.803223,921.960449 
	C1107.073608,902.915222 1114.196411,883.813110 1121.563110,864.805298 
	C1131.929932,838.056763 1142.479004,811.378845 1152.920654,784.659180 
	C1159.054565,768.962708 1165.130859,753.243713 1171.440063,737.001953 
	C1169.284424,737.001953 1167.675781,737.001892 1166.067139,737.001892 
	C1138.569702,737.001892 1111.072266,737.000793 1083.574829,737.002625 
	C1076.010010,737.003113 1074.667847,737.768127 1071.999023,744.603333 
	C1062.466553,769.016602 1053.033691,793.468750 1043.532837,817.894287 
	C1032.055908,847.400208 1020.532593,876.887939 1009.063904,906.396912 
	C1005.955994,914.393433 1002.973145,922.438477 999.793579,930.828979 
	C1022.205261,930.828979 1043.852661,930.828979 1066.500000,930.828979 
M1055.989990,305.344818 
	C1059.275757,269.060638 1062.561523,232.776474 1065.843384,196.534836 
	C1063.805420,196.804382 1062.277832,196.818710 1060.860596,197.221664 
	C1034.336426,204.763901 1007.825684,212.354233 981.310730,219.929245 
	C976.080627,221.423447 973.399719,224.737869 972.930481,230.295258 
	C971.308472,249.505341 969.470581,268.697235 967.702759,287.894958 
	C963.816711,330.096191 959.916199,372.296143 956.042664,414.498535 
	C955.612305,419.186615 955.317932,423.887177 954.947144,428.757080 
	C957.238220,428.317505 958.901978,428.135284 960.484619,427.674225 
	C987.122009,419.914368 1013.720032,412.016907 1040.406616,404.430725 
	C1045.029053,403.116699 1047.052490,400.495178 1047.465088,396.110809 
	C1050.283203,366.161865 1053.080811,336.210968 1055.989990,305.344818 
M1570.018921,884.426392 
	C1564.150391,899.667664 1558.281982,914.908936 1552.363281,930.280518 
	C1573.170532,930.280518 1593.444580,930.280518 1613.821411,930.280518 
	C1613.821411,878.757874 1613.821411,827.468689 1613.821411,776.179504 
	C1613.414551,776.063538 1613.007568,775.947571 1612.600708,775.831604 
	C1598.511719,811.793762 1584.422729,847.755920 1570.018921,884.426392 
M1493.989258,188.497025 
	C1491.262207,217.663651 1488.535278,246.830261 1485.746460,276.657654 
	C1506.070068,270.833191 1525.373535,265.301086 1544.969360,259.685211 
	C1530.724121,209.720047 1516.634033,160.298950 1502.543823,110.877861 
	C1502.016968,110.984146 1501.490234,111.090424 1500.963379,111.196709 
	C1498.642090,136.656113 1496.320923,162.115524 1493.989258,188.497025 
z"/>
<path fill="#010101" opacity="1.000000" stroke="none" 
	d="
M1382.000000,966.836731 
	C1459.453979,966.836731 1536.407959,966.836731 1613.595703,966.836731 
	C1613.595703,1207.341187 1613.595703,1447.423462 1613.595703,1687.834473 
	C1115.504395,1687.834473 617.469910,1687.834473 119.136017,1687.834473 
	C119.136017,1447.706787 119.136017,1207.501831 119.136017,966.836731 
	C539.984619,966.836731 960.742310,966.836731 1382.000000,966.836731 
M931.849060,1518.486572 
	C931.849060,1379.354004 931.849060,1240.221313 931.849060,1101.088745 
	C932.288147,1101.023438 932.727234,1100.958008 933.166260,1100.892700 
	C935.100952,1105.399658 937.120972,1109.872070 938.956055,1114.419189 
	C948.915710,1139.098633 958.777588,1163.817505 968.771729,1188.482910 
	C983.435425,1224.672852 998.231262,1260.809082 1012.880127,1297.005005 
	C1027.330566,1332.710449 1041.662476,1368.463989 1056.057373,1404.191895 
	C1067.063110,1431.507568 1078.078247,1458.819702 1089.104492,1486.127075 
	C1094.741577,1500.087891 1100.354248,1514.058960 1106.091431,1527.978638 
	C1109.260864,1535.668335 1116.130493,1537.155151 1121.704590,1531.135376 
	C1123.855591,1528.812378 1125.192017,1525.589478 1126.422241,1522.581421 
	C1144.868652,1477.479004 1163.271851,1432.358887 1181.609131,1387.212158 
	C1197.142334,1348.969482 1212.523926,1310.665161 1228.069214,1272.427368 
	C1247.734497,1224.055786 1267.489380,1175.720581 1287.228149,1127.378906 
	C1290.119385,1120.298218 1293.135498,1113.268555 1296.093872,1106.215210 
	C1296.280151,1106.311646 1296.466431,1106.407959 1296.652710,1106.504395 
	C1296.652710,1247.528076 1296.652710,1388.551758 1296.652710,1529.987793 
	C1283.344727,1529.987793 1270.370605,1529.980957 1257.396484,1529.994141 
	C1255.065430,1529.996460 1252.706543,1529.870483 1250.409058,1530.172119 
	C1245.761353,1530.782471 1242.944214,1534.019775 1243.237549,1538.733032 
	C1243.495850,1542.883179 1245.469238,1546.082642 1249.984985,1546.782593 
	C1252.109741,1547.111938 1254.293091,1547.166748 1256.450073,1547.168213 
	C1290.114502,1547.190552 1323.778809,1547.197876 1357.443237,1547.147461 
	C1359.389648,1547.144531 1361.385620,1546.804321 1363.270996,1546.296265 
	C1367.446411,1545.171021 1369.028931,1542.118042 1368.838257,1538.006226 
	C1368.633545,1533.596680 1366.287354,1530.942383 1361.965088,1530.196899 
	C1360.342407,1529.917114 1358.649414,1529.997070 1356.988403,1529.995483 
	C1343.036255,1529.982056 1329.083984,1529.987793 1314.531372,1529.987793 
	C1314.531372,1527.214844 1314.531372,1525.101807 1314.531372,1522.988647 
	C1314.531372,1370.998901 1314.531982,1219.009277 1314.523560,1067.019531 
	C1314.523438,1065.025024 1314.575684,1063.007812 1314.312378,1061.040283 
	C1313.615234,1055.830688 1310.076904,1053.159058 1304.902344,1053.953369 
	C1299.595947,1054.767822 1296.402100,1058.304688 1294.498413,1062.967529 
	C1283.224609,1090.580566 1272.079102,1118.245972 1260.826660,1145.867676 
	C1244.253906,1186.549438 1227.592285,1227.194946 1211.035645,1267.883301 
	C1199.226440,1296.904907 1187.568848,1325.988159 1175.769165,1355.013794 
	C1161.349243,1390.484985 1146.868774,1425.931641 1132.378174,1461.374268 
	C1126.849121,1474.898193 1121.220093,1488.381348 1115.384277,1502.493286 
	C1114.060547,1499.956299 1112.915894,1498.128662 1112.110840,1496.161987 
	C1104.775146,1478.239746 1097.463989,1460.307007 1090.211914,1442.350586 
	C1077.021362,1409.690430 1063.874756,1377.012451 1050.712280,1344.340942 
	C1039.773193,1317.188354 1028.852417,1290.028442 1017.896057,1262.882935 
	C1007.997009,1238.357178 998.057861,1213.847656 988.141602,1189.328857 
	C976.423096,1160.353516 964.731873,1131.366821 952.985229,1102.402832 
	C947.325439,1088.447388 941.568848,1074.531372 935.849121,1060.600220 
	C933.991882,1056.076538 930.451904,1054.392578 925.721497,1053.896362 
	C917.211731,1053.003662 913.471802,1058.640625 910.324036,1064.805176 
	C885.670776,1113.086304 861.132690,1161.426147 836.554077,1209.745483 
	C817.675049,1246.859741 798.798462,1283.975220 779.903381,1321.081299 
	C758.104553,1363.889648 736.261353,1406.675415 714.486633,1449.495972 
	C701.515747,1475.003784 688.614380,1500.547119 675.760986,1526.114258 
	C674.578003,1528.467163 673.333313,1529.303101 670.484497,1529.280396 
	C659.341553,1529.191895 648.176086,1529.272339 637.056091,1529.923462 
	C630.063293,1530.333008 626.775696,1536.590576 629.747620,1542.395508 
	C631.971741,1546.739624 635.990356,1546.842163 640.048462,1546.843994 
	C663.880188,1546.854370 687.711914,1546.849121 711.543640,1546.849121 
	C722.542908,1546.849121 733.543091,1546.939331 744.541016,1546.817017 
	C751.827881,1546.736084 755.600647,1542.034912 753.757263,1535.480591 
	C752.217285,1530.004639 747.648254,1529.537720 743.023438,1529.483032 
	C730.535278,1529.335449 718.046448,1529.249756 705.557678,1529.155396 
	C701.808105,1529.126953 698.058105,1529.150879 693.493591,1529.150879 
	C701.425232,1513.776489 709.031921,1499.170410 716.514587,1484.500854 
	C734.453674,1449.332397 752.340942,1414.137451 770.236450,1378.946777 
	C781.632629,1356.536743 793.031616,1334.127930 804.367004,1311.687012 
	C806.506958,1307.450439 809.332947,1305.351318 814.481445,1305.415161 
	C836.476562,1305.687866 858.476990,1305.531372 880.475525,1305.531372 
	C891.428162,1305.531372 902.380859,1305.531372 913.512207,1305.531372 
	C913.512207,1380.468506 913.512207,1454.687988 913.512207,1529.468628 
	C899.732788,1529.468628 886.254578,1529.382935 872.779114,1529.540161 
	C870.037109,1529.572144 866.812500,1529.799683 864.706909,1531.244019 
	C862.560303,1532.716797 860.299561,1535.819580 860.336670,1538.173340 
	C860.373657,1540.517212 862.737427,1543.560181 864.933411,1544.934448 
	C867.279724,1546.402832 870.620422,1546.760498 873.531372,1546.775513 
	C906.525391,1546.946167 939.520325,1546.966553 972.514954,1546.990967 
	C974.497986,1546.992432 976.516113,1546.866577 978.457764,1546.489868 
	C983.762878,1545.460693 985.668640,1542.821899 985.226990,1537.455078 
	C984.786255,1532.099487 981.940125,1529.641968 975.207092,1529.518677 
	C965.544250,1529.341553 955.875916,1529.470093 946.209900,1529.468750 
	C941.466248,1529.468140 936.722595,1529.468628 931.849060,1529.468628 
	C931.849060,1525.460327 931.849060,1522.470337 931.849060,1518.486572 
M610.761292,1509.259521 
	C619.892334,1496.371338 625.489380,1481.962036 629.150085,1466.704346 
	C633.942810,1446.728882 635.728455,1426.371704 636.662720,1405.935791 
	C638.276062,1370.644897 635.880798,1335.872925 620.900635,1303.161255 
	C609.146606,1277.494385 590.666382,1258.266724 564.805481,1246.396606 
	C541.052734,1235.494019 515.897522,1232.099976 490.070923,1232.151489 
	C484.704010,1232.162231 479.337006,1232.153076 473.136871,1232.153076 
	C474.345490,1230.789551 474.723999,1230.251953 475.206360,1229.834106 
	C496.051239,1211.775635 516.890930,1193.711182 537.762085,1175.683105 
	C563.409668,1153.529297 589.019714,1131.331299 614.774414,1109.302612 
	C627.762146,1098.193726 641.046631,1087.432129 654.147400,1076.454224 
	C655.036804,1075.708862 656.032837,1074.490234 656.083191,1073.448242 
	C656.297607,1069.015869 656.174377,1064.567017 656.174377,1060.149170 
	C562.436523,1060.149170 469.228027,1060.149170 376.091675,1060.149170 
	C376.091675,1065.893066 376.091675,1071.305908 376.091675,1077.054199 
	C459.083008,1077.054199 541.804382,1077.054199 625.882874,1077.054199 
	C624.101135,1078.485352 623.235046,1079.137207 622.416992,1079.844727 
	C609.348328,1091.145996 596.291809,1102.461182 583.220520,1113.759399 
	C559.716736,1134.075073 536.191162,1154.365601 512.700195,1174.696167 
	C489.458282,1194.811279 466.249573,1214.964600 443.021423,1235.095703 
	C440.213531,1237.529175 439.220062,1240.310669 440.770599,1243.930420 
	C442.452484,1247.856689 443.881073,1251.891479 445.379425,1255.773560 
	C450.122925,1254.490723 454.537415,1252.402222 459.023529,1252.234863 
	C481.283234,1251.404541 503.587738,1249.866943 525.797668,1253.018921 
	C546.252930,1255.921753 564.785645,1263.397705 580.263489,1277.346802 
	C599.790833,1294.945190 610.301941,1317.619263 614.787720,1342.992676 
	C621.845459,1382.914307 621.036926,1422.954712 611.795227,1462.381226 
	C603.024475,1499.798950 580.098877,1524.650513 542.005127,1534.178223 
	C519.003052,1539.931274 495.661530,1540.484741 472.213806,1538.474976 
	C445.684601,1536.201172 424.424225,1523.799927 407.431549,1503.670410 
	C392.719635,1486.242798 385.355804,1465.403564 379.901031,1443.713257 
	C377.334747,1433.508911 374.865021,1423.280151 372.289886,1412.811890 
	C366.508362,1413.603027 361.184387,1414.331543 355.865692,1415.059326 
	C359.199738,1439.746094 366.804993,1472.890015 381.894806,1497.881592 
	C394.439301,1518.657715 410.167603,1536.110107 432.752197,1545.995728 
	C454.040222,1555.313599 476.532501,1559.507446 499.803223,1558.921997 
	C520.524658,1558.400879 540.599060,1554.185669 560.075012,1547.260742 
	C580.616516,1539.956665 597.694763,1527.845215 610.761292,1509.259521 
z"/>
<path fill="#020202" opacity="1.000000" stroke="none" 
	d="
M247.995758,930.829895 
	C219.874680,930.829895 192.252594,930.829895 163.627075,930.829895 
	C165.951279,924.523499 167.883423,919.021973 169.995880,913.590576 
	C185.190186,874.524536 200.429108,835.475830 215.636688,796.414978 
	C222.492630,778.805359 229.319504,761.184387 236.135605,743.559326 
	C237.621902,739.716064 239.867249,736.892212 244.409714,736.891846 
	C277.205078,736.889404 310.000427,736.890503 343.522491,736.890503 
	C339.537872,747.463684 335.794464,757.658264 331.862976,767.779846 
	C320.459015,797.139099 308.972534,826.466309 297.532104,855.811340 
	C288.446411,879.116333 279.373108,902.426208 270.314148,925.741577 
	C268.817627,929.593201 265.682312,930.726135 261.986328,930.805969 
	C257.491028,930.903198 252.992081,930.829590 247.995758,930.829895 
z"/>
<path fill="#030303" opacity="1.000000" stroke="none" 
	d="
M223.669342,437.667664 
	C239.098724,433.183533 254.163895,428.882324 270.100861,424.332245 
	C269.989319,426.796753 269.979858,428.522980 269.823547,430.235748 
	C266.333618,468.482941 262.844299,506.730225 259.318542,544.974121 
	C256.907196,571.129517 254.398575,597.276062 252.040527,623.436218 
	C251.651260,627.754761 250.470123,631.245850 245.890869,632.571106 
	C214.946777,641.526245 183.999634,650.470764 153.050385,659.408081 
	C152.616364,659.533447 152.142334,659.520264 150.992035,659.650269 
	C151.398209,654.027588 151.698013,648.633057 152.190231,643.256226 
	C157.055084,590.113342 161.955948,536.973816 166.835114,483.832336 
	C167.564713,475.886017 168.401428,467.944031 168.871399,459.981323 
	C169.160828,455.077423 171.586853,452.414948 176.110168,451.148468 
	C191.849045,446.741699 207.574539,442.287048 223.669342,437.667664 
z"/>
<path fill="#020202" opacity="1.000000" stroke="none" 
	d="
M1232.579468,181.685120 
	C1233.593384,171.637497 1234.643066,162.055908 1235.462646,152.454681 
	C1235.793457,148.579376 1237.761475,146.386780 1241.308716,145.369614 
	C1271.000488,136.855377 1300.695068,128.350952 1330.393188,119.858833 
	C1331.472046,119.550362 1332.596069,119.399956 1334.386841,119.036209 
	C1333.731079,127.357559 1333.200439,135.260971 1332.472412,143.146164 
	C1327.063232,201.736496 1321.558105,260.318054 1316.277710,318.919922 
	C1315.805542,324.159119 1313.637085,326.028076 1308.663208,327.409882 
	C1280.648071,335.192993 1252.770752,343.472778 1224.842407,351.568939 
	C1222.334717,352.295898 1219.797485,352.920807 1216.839844,353.708771 
	C1222.085815,296.320404 1227.304443,239.231842 1232.579468,181.685120 
z"/>
<path fill="#040404" opacity="1.000000" stroke="none" 
	d="
M1321.000000,930.829895 
	C1304.747681,930.829895 1288.995239,930.829895 1272.656860,930.829895 
	C1283.076294,903.938721 1293.091553,877.998291 1303.176880,852.085144 
	C1315.257935,821.044556 1327.404663,790.029541 1339.508789,758.997986 
	C1341.979614,752.662842 1344.251953,746.244812 1346.938721,740.004028 
	C1347.483643,738.738159 1349.480103,737.294373 1350.813599,737.288330 
	C1383.303101,737.140076 1415.793457,737.173706 1448.283569,737.193359 
	C1448.886841,737.193726 1449.489746,737.421631 1450.621460,737.650146 
	C1446.285034,748.928772 1442.127319,759.885681 1437.865112,770.801697 
	C1425.141479,803.388916 1412.350464,835.949890 1399.637939,868.541382 
	C1392.348877,887.227966 1385.101929,905.931519 1377.969727,924.678345 
	C1376.238281,929.229553 1373.283691,930.946289 1368.485229,930.893921 
	C1352.825195,930.723083 1337.161987,930.829895 1321.000000,930.829895 
z"/>
<path fill="#020202" opacity="1.000000" stroke="none" 
	d="
M698.867432,502.929077 
	C695.128601,503.929077 691.797607,504.853668 687.480164,506.052063 
	C687.736023,501.250916 687.820435,497.055756 688.202820,492.887939 
	C693.167297,438.782318 698.169617,384.680115 703.175110,330.578247 
	C703.955566,322.142212 704.828552,313.714722 705.600098,305.277893 
	C705.958923,301.354126 707.854980,299.037262 711.759460,297.909515 
	C741.266785,289.386932 770.738831,280.742340 800.230835,272.166504 
	C801.156799,271.897217 802.179382,271.960144 803.832642,271.804596 
	C803.122498,279.908264 802.458496,287.758789 801.743164,295.604584 
	C797.157104,345.906555 792.572449,396.208649 787.953247,446.507568 
	C787.224182,454.446503 786.237061,462.362000 785.530212,470.302673 
	C785.056641,475.622986 782.232483,478.720001 777.231140,480.169373 
	C754.565125,486.737793 731.907715,493.336182 709.248047,499.926727 
	C705.921448,500.894287 702.599365,501.877655 698.867432,502.929077 
z"/>
<path fill="#030303" opacity="1.000000" stroke="none" 
	d="
M891.422607,756.278931 
	C876.666870,794.338074 862.021484,832.027527 847.313538,869.692505 
	C840.079346,888.218323 832.694031,906.685120 825.461609,925.211548 
	C824.062439,928.795593 821.572144,930.467285 817.872131,930.482666 
	C787.231201,930.609863 756.590149,930.722290 725.949097,930.799500 
	C724.866516,930.802246 723.782898,930.390991 722.108521,930.053467 
	C725.224976,921.804932 728.130127,913.924866 731.171143,906.097534 
	C752.056885,852.339233 772.964111,798.589172 793.884399,744.844238 
	C796.765076,737.443787 797.503418,737.003052 805.648071,737.002625 
	C834.131775,737.001160 862.615540,736.992126 891.099243,737.021057 
	C893.375549,737.023376 895.651672,737.294434 898.713745,737.491089 
	C896.147522,744.046143 893.827393,749.972717 891.422607,756.278931 
z"/>
<path fill="#030303" opacity="1.000000" stroke="none" 
	d="
M501.792938,559.845581 
	C475.054932,567.441589 448.722076,574.997986 421.717865,582.746948 
	C422.205811,575.752563 422.558380,569.040344 423.159058,562.350342 
	C428.107819,507.235474 433.099701,452.124451 438.088531,397.013214 
	C438.522949,392.214172 439.267151,387.429932 439.435089,382.623718 
	C439.605865,377.735535 441.820770,375.229065 446.525421,373.927246 
	C462.590088,369.481995 478.569519,364.729370 494.589630,360.122406 
	C507.114380,356.520599 519.648682,352.952087 532.186951,349.397766 
	C533.281860,349.087372 534.437988,348.992950 536.196777,348.689270 
	C535.330261,359.078949 534.562317,369.133759 533.642212,379.174652 
	C529.396423,425.506622 525.114075,471.835205 520.830750,518.163696 
	C519.928406,527.923279 518.761414,537.663696 518.111755,547.439270 
	C517.737732,553.066223 515.233765,556.336731 509.813202,557.613892 
	C507.245209,558.218872 504.734619,559.067566 501.792938,559.845581 
z"/>
<path fill="#030303" opacity="1.000000" stroke="none" 
	d="
M474.802124,854.008789 
	C484.118805,830.187500 493.296570,806.727722 502.436859,783.253357 
	C507.425995,770.440063 512.304504,757.583496 517.325195,744.782715 
	C519.980286,738.013306 521.594116,737.005859 528.832031,737.004333 
	C557.652344,736.998230 586.472595,737.001831 615.292908,737.001831 
	C616.744629,737.001831 618.196289,737.001892 620.286560,737.001892 
	C616.068665,748.145508 612.120422,758.828247 607.990601,769.440247 
	C595.909058,800.485413 583.735962,831.494995 571.635986,862.533020 
	C563.747253,882.768555 555.949341,903.039490 548.055542,923.273010 
	C545.547913,929.700562 543.766113,930.824890 536.818848,930.826355 
	C507.998566,930.832642 479.178284,930.828979 450.358002,930.828979 
	C448.898315,930.828979 447.438629,930.829041 445.098877,930.829041 
	C455.107178,904.929993 464.877350,879.647034 474.802124,854.008789 
z"/>
<path fill="#030303" opacity="1.000000" stroke="none" 
	d="
M1066.000000,930.828979 
	C1043.852661,930.828979 1022.205261,930.828979 999.793579,930.828979 
	C1002.973145,922.438477 1005.955994,914.393433 1009.063904,906.396912 
	C1020.532593,876.887939 1032.055908,847.400208 1043.532837,817.894287 
	C1053.033691,793.468750 1062.466553,769.016602 1071.999023,744.603333 
	C1074.667847,737.768127 1076.010010,737.003113 1083.574829,737.002625 
	C1111.072266,737.000793 1138.569702,737.001892 1166.067139,737.001892 
	C1167.675781,737.001892 1169.284424,737.001953 1171.440063,737.001953 
	C1165.130859,753.243713 1159.054565,768.962708 1152.920654,784.659180 
	C1142.479004,811.378845 1131.929932,838.056763 1121.563110,864.805298 
	C1114.196411,883.813110 1107.073608,902.915222 1099.803223,921.960449 
	C1096.802612,929.820923 1094.337524,931.336426 1085.983276,931.099487 
	C1079.491577,930.915344 1072.994629,930.912415 1066.000000,930.828979 
z"/>
<path fill="#040404" opacity="1.000000" stroke="none" 
	d="
M1055.937500,305.802765 
	C1053.080811,336.210968 1050.283203,366.161865 1047.465088,396.110809 
	C1047.052490,400.495178 1045.029053,403.116699 1040.406616,404.430725 
	C1013.720032,412.016907 987.122009,419.914368 960.484619,427.674225 
	C958.901978,428.135284 957.238220,428.317505 954.947144,428.757080 
	C955.317932,423.887177 955.612305,419.186615 956.042664,414.498535 
	C959.916199,372.296143 963.816711,330.096191 967.702759,287.894958 
	C969.470581,268.697235 971.308472,249.505341 972.930481,230.295258 
	C973.399719,224.737869 976.080627,221.423447 981.310730,219.929245 
	C1007.825684,212.354233 1034.336426,204.763901 1060.860596,197.221664 
	C1062.277832,196.818710 1063.805420,196.804382 1065.843384,196.534836 
	C1062.561523,232.776474 1059.275757,269.060638 1055.937500,305.802765 
z"/>
<path fill="#0B0B0B" opacity="1.000000" stroke="none" 
	d="
M1570.176270,884.072266 
	C1584.422729,847.755920 1598.511719,811.793762 1612.600708,775.831604 
	C1613.007568,775.947571 1613.414551,776.063538 1613.821411,776.179504 
	C1613.821411,827.468689 1613.821411,878.757874 1613.821411,930.280518 
	C1593.444580,930.280518 1573.170532,930.280518 1552.363281,930.280518 
	C1558.281982,914.908936 1564.150391,899.667664 1570.176270,884.072266 
z"/>
<path fill="#070707" opacity="1.000000" stroke="none" 
	d="
M1493.994385,188.035980 
	C1496.320923,162.115524 1498.642090,136.656113 1500.963379,111.196709 
	C1501.490234,111.090424 1502.016968,110.984146 1502.543823,110.877861 
	C1516.634033,160.298950 1530.724121,209.720047 1544.969360,259.685211 
	C1525.373535,265.301086 1506.070068,270.833191 1485.746460,276.657654 
	C1488.535278,246.830261 1491.262207,217.663651 1493.994385,188.035980 
z"/>
<path fill="#F6F6F6" opacity="1.000000" stroke="none" 
	d="
M931.849060,1518.983398 
	C931.849060,1522.470337 931.849060,1525.460327 931.849060,1529.468628 
	C936.722595,1529.468628 941.466248,1529.468140 946.209900,1529.468750 
	C955.875916,1529.470093 965.544250,1529.341553 975.207092,1529.518677 
	C981.940125,1529.641968 984.786255,1532.099487 985.226990,1537.455078 
	C985.668640,1542.821899 983.762878,1545.460693 978.457764,1546.489868 
	C976.516113,1546.866577 974.497986,1546.992432 972.514954,1546.990967 
	C939.520325,1546.966553 906.525391,1546.946167 873.531372,1546.775513 
	C870.620422,1546.760498 867.279724,1546.402832 864.933411,1544.934448 
	C862.737427,1543.560181 860.373657,1540.517212 860.336670,1538.173340 
	C860.299561,1535.819580 862.560303,1532.716797 864.706909,1531.244019 
	C866.812500,1529.799683 870.037109,1529.572144 872.779114,1529.540161 
	C886.254578,1529.382935 899.732788,1529.468628 913.512207,1529.468628 
	C913.512207,1454.687988 913.512207,1380.468506 913.512207,1305.531372 
	C902.380859,1305.531372 891.428162,1305.531372 880.475525,1305.531372 
	C858.476990,1305.531372 836.476562,1305.687866 814.481445,1305.415161 
	C809.332947,1305.351318 806.506958,1307.450439 804.367004,1311.687012 
	C793.031616,1334.127930 781.632629,1356.536743 770.236450,1378.946777 
	C752.340942,1414.137451 734.453674,1449.332397 716.514587,1484.500854 
	C709.031921,1499.170410 701.425232,1513.776489 693.493591,1529.150879 
	C698.058105,1529.150879 701.808105,1529.126953 705.557678,1529.155396 
	C718.046448,1529.249756 730.535278,1529.335449 743.023438,1529.483032 
	C747.648254,1529.537720 752.217285,1530.004639 753.757263,1535.480591 
	C755.600647,1542.034912 751.827881,1546.736084 744.541016,1546.817017 
	C733.543091,1546.939331 722.542908,1546.849121 711.543640,1546.849121 
	C687.711914,1546.849121 663.880188,1546.854370 640.048462,1546.843994 
	C635.990356,1546.842163 631.971741,1546.739624 629.747620,1542.395508 
	C626.775696,1536.590576 630.063293,1530.333008 637.056091,1529.923462 
	C648.176086,1529.272339 659.341553,1529.191895 670.484497,1529.280396 
	C673.333313,1529.303101 674.578003,1528.467163 675.760986,1526.114258 
	C688.614380,1500.547119 701.515747,1475.003784 714.486633,1449.495972 
	C736.261353,1406.675415 758.104553,1363.889648 779.903381,1321.081299 
	C798.798462,1283.975220 817.675049,1246.859741 836.554077,1209.745483 
	C861.132690,1161.426147 885.670776,1113.086304 910.324036,1064.805176 
	C913.471802,1058.640625 917.211731,1053.003662 925.721497,1053.896362 
	C930.451904,1054.392578 933.991882,1056.076538 935.849121,1060.600220 
	C941.568848,1074.531372 947.325439,1088.447388 952.985229,1102.402832 
	C964.731873,1131.366821 976.423096,1160.353516 988.141602,1189.328857 
	C998.057861,1213.847656 1007.997009,1238.357178 1017.896057,1262.882935 
	C1028.852417,1290.028442 1039.773193,1317.188354 1050.712280,1344.340942 
	C1063.874756,1377.012451 1077.021362,1409.690430 1090.211914,1442.350586 
	C1097.463989,1460.307007 1104.775146,1478.239746 1112.110840,1496.161987 
	C1112.915894,1498.128662 1114.060547,1499.956299 1115.384277,1502.493286 
	C1121.220093,1488.381348 1126.849121,1474.898193 1132.378174,1461.374268 
	C1146.868774,1425.931641 1161.349243,1390.484985 1175.769165,1355.013794 
	C1187.568848,1325.988159 1199.226440,1296.904907 1211.035645,1267.883301 
	C1227.592285,1227.194946 1244.253906,1186.549438 1260.826660,1145.867676 
	C1272.079102,1118.245972 1283.224609,1090.580566 1294.498413,1062.967529 
	C1296.402100,1058.304688 1299.595947,1054.767822 1304.902344,1053.953369 
	C1310.076904,1053.159058 1313.615234,1055.830688 1314.312378,1061.040283 
	C1314.575684,1063.007812 1314.523438,1065.025024 1314.523560,1067.019531 
	C1314.531982,1219.009277 1314.531372,1370.998901 1314.531372,1522.988647 
	C1314.531372,1525.101807 1314.531372,1527.214844 1314.531372,1529.987793 
	C1329.083984,1529.987793 1343.036255,1529.982056 1356.988403,1529.995483 
	C1358.649414,1529.997070 1360.342407,1529.917114 1361.965088,1530.196899 
	C1366.287354,1530.942383 1368.633545,1533.596680 1368.838257,1538.006226 
	C1369.028931,1542.118042 1367.446411,1545.171021 1363.270996,1546.296265 
	C1361.385620,1546.804321 1359.389648,1547.144531 1357.443237,1547.147461 
	C1323.778809,1547.197876 1290.114502,1547.190552 1256.450073,1547.168213 
	C1254.293091,1547.166748 1252.109741,1547.111938 1249.984985,1546.782593 
	C1245.469238,1546.082642 1243.495850,1542.883179 1243.237549,1538.733032 
	C1242.944214,1534.019775 1245.761353,1530.782471 1250.409058,1530.172119 
	C1252.706543,1529.870483 1255.065430,1529.996460 1257.396484,1529.994141 
	C1270.370605,1529.980957 1283.344727,1529.987793 1296.652710,1529.987793 
	C1296.652710,1388.551758 1296.652710,1247.528076 1296.652710,1106.504395 
	C1296.466431,1106.407959 1296.280151,1106.311646 1296.093872,1106.215210 
	C1293.135498,1113.268555 1290.119385,1120.298218 1287.228149,1127.378906 
	C1267.489380,1175.720581 1247.734497,1224.055786 1228.069214,1272.427368 
	C1212.523926,1310.665161 1197.142334,1348.969482 1181.609131,1387.212158 
	C1163.271851,1432.358887 1144.868652,1477.479004 1126.422241,1522.581421 
	C1125.192017,1525.589478 1123.855591,1528.812378 1121.704590,1531.135376 
	C1116.130493,1537.155151 1109.260864,1535.668335 1106.091431,1527.978638 
	C1100.354248,1514.058960 1094.741577,1500.087891 1089.104492,1486.127075 
	C1078.078247,1458.819702 1067.063110,1431.507568 1056.057373,1404.191895 
	C1041.662476,1368.463989 1027.330566,1332.710449 1012.880127,1297.005005 
	C998.231262,1260.809082 983.435425,1224.672852 968.771729,1188.482910 
	C958.777588,1163.817505 948.915710,1139.098633 938.956055,1114.419189 
	C937.120972,1109.872070 935.100952,1105.399658 933.166260,1100.892700 
	C932.727234,1100.958008 932.288147,1101.023438 931.849060,1101.088745 
	C931.849060,1240.221313 931.849060,1379.354004 931.849060,1518.983398 
M913.468140,1157.500244 
	C913.468140,1138.365356 913.468140,1119.230469 913.468140,1100.095581 
	C913.034790,1100.021851 912.601379,1099.948242 912.168030,1099.874512 
	C880.425537,1162.220703 848.683044,1224.567017 816.828857,1287.132568 
	C849.329346,1287.132568 881.214172,1287.132568 913.468201,1287.132568 
	C913.468201,1244.032104 913.468201,1201.266235 913.468140,1157.500244 
z"/>
<path fill="#F7F7F7" opacity="1.000000" stroke="none" 
	d="
M610.519226,1509.526733 
	C597.694763,1527.845215 580.616516,1539.956665 560.075012,1547.260742 
	C540.599060,1554.185669 520.524658,1558.400879 499.803223,1558.921997 
	C476.532501,1559.507446 454.040222,1555.313599 432.752197,1545.995728 
	C410.167603,1536.110107 394.439301,1518.657715 381.894806,1497.881592 
	C366.804993,1472.890015 359.199738,1439.746094 355.865692,1415.059326 
	C361.184387,1414.331543 366.508362,1413.603027 372.289886,1412.811890 
	C374.865021,1423.280151 377.334747,1433.508911 379.901031,1443.713257 
	C385.355804,1465.403564 392.719635,1486.242798 407.431549,1503.670410 
	C424.424225,1523.799927 445.684601,1536.201172 472.213806,1538.474976 
	C495.661530,1540.484741 519.003052,1539.931274 542.005127,1534.178223 
	C580.098877,1524.650513 603.024475,1499.798950 611.795227,1462.381226 
	C621.036926,1422.954712 621.845459,1382.914307 614.787720,1342.992676 
	C610.301941,1317.619263 599.790833,1294.945190 580.263489,1277.346802 
	C564.785645,1263.397705 546.252930,1255.921753 525.797668,1253.018921 
	C503.587738,1249.866943 481.283234,1251.404541 459.023529,1252.234863 
	C454.537415,1252.402222 450.122925,1254.490723 445.379425,1255.773560 
	C443.881073,1251.891479 442.452484,1247.856689 440.770599,1243.930420 
	C439.220062,1240.310669 440.213531,1237.529175 443.021423,1235.095703 
	C466.249573,1214.964600 489.458282,1194.811279 512.700195,1174.696167 
	C536.191162,1154.365601 559.716736,1134.075073 583.220520,1113.759399 
	C596.291809,1102.461182 609.348328,1091.145996 622.416992,1079.844727 
	C623.235046,1079.137207 624.101135,1078.485352 625.882874,1077.054199 
	C541.804382,1077.054199 459.083008,1077.054199 376.091675,1077.054199 
	C376.091675,1071.305908 376.091675,1065.893066 376.091675,1060.149170 
	C469.228027,1060.149170 562.436523,1060.149170 656.174377,1060.149170 
	C656.174377,1064.567017 656.297607,1069.015869 656.083191,1073.448242 
	C656.032837,1074.490234 655.036804,1075.708862 654.147400,1076.454224 
	C641.046631,1087.432129 627.762146,1098.193726 614.774414,1109.302612 
	C589.019714,1131.331299 563.409668,1153.529297 537.762085,1175.683105 
	C516.890930,1193.711182 496.051239,1211.775635 475.206360,1229.834106 
	C474.723999,1230.251953 474.345490,1230.789551 473.136871,1232.153076 
	C479.337006,1232.153076 484.704010,1232.162231 490.070923,1232.151489 
	C515.897522,1232.099976 541.052734,1235.494019 564.805481,1246.396606 
	C590.666382,1258.266724 609.146606,1277.494385 620.900635,1303.161255 
	C635.880798,1335.872925 638.276062,1370.644897 636.662720,1405.935791 
	C635.728455,1426.371704 633.942810,1446.728882 629.150085,1466.704346 
	C625.489380,1481.962036 619.892334,1496.371338 610.519226,1509.526733 
z"/>
<path fill="#010101" opacity="1.000000" stroke="none" 
	d="
M913.468140,1158.000244 
	C913.468201,1201.266235 913.468201,1244.032104 913.468201,1287.132568 
	C881.214172,1287.132568 849.329346,1287.132568 816.828857,1287.132568 
	C848.683044,1224.567017 880.425537,1162.220703 912.168030,1099.874512 
	C912.601379,1099.948242 913.034790,1100.021851 913.468140,1100.095581 
	C913.468140,1119.230469 913.468140,1138.365356 913.468140,1158.000244 
z"/>
</svg>